<?xml version="1.0" encoding="UTF-8"?>
<svg width="135px" height="172px" viewBox="0 0 135 172" version="1.1" xmlns="http://www.w3.org/2000/svg" xmlns:xlink="http://www.w3.org/1999/xlink">
    <title>河北地图选中状态</title>
    <defs>
        <linearGradient x1="50%" y1="0%" x2="50%" y2="100%" id="linearGradient-1">
            <stop stop-color="#FFFFFF" offset="0%"></stop>
            <stop stop-color="#FFEDB9" offset="100%"></stop>
        </linearGradient>
        <path d="M121.305125,48.7538255 C121.937761,48.8373499 121.866313,48.6471713 122.237841,49.5929243 C122.750965,51.4201809 123.108204,53.300122 123.933099,54.383369 C124.590418,55.1595033 125.139915,56.4123691 126.302563,56.96363 C126.458449,56.96363 126.513009,57.5971303 126.814388,58.7716117 C127.091085,59.6119955 127.288541,60.485789 128.316088,61.1347092 C128.016008,61.2696332 127.71333,61.4045572 127.410651,61.5394813 C124.656669,62.7679322 124.134452,63.0313553 123.914912,63.3024883 C123.353724,63.9963831 123.370611,64.7262578 123.964276,65.5332318 C124.00065,65.5833464 124.02793,65.6257511 124.044817,65.6591609 C123.964276,65.6797207 123.830474,65.7002806 123.621328,65.7002806 C122.172889,65.7002806 120.654301,66.9313015 120.011273,68.626204 C119.711192,69.4139032 119.724183,70.1347829 119.733276,70.660344 C119.744968,71.3516689 119.71379,71.3606638 119.568297,71.4030685 C118.212091,71.7975606 117.696369,72.1727778 117.727546,72.7433136 C117.737938,72.9296373 117.839264,73.378099 118.566731,73.509168 C118.757691,73.5438627 118.952548,73.5567126 119.135714,73.5669926 C119.177284,73.5695626 119.226647,73.5721325 119.274712,73.5759875 C119.272114,73.5862674 119.268217,73.5978323 119.26432,73.6106822 C119.188975,73.8535455 119.103238,74.0707089 119.025295,74.2724524 C118.755093,74.9663473 118.477097,75.684657 118.894091,76.5790104 C119.055173,76.9221028 118.869409,77.3307298 118.291333,77.8999806 C117.822376,78.3638622 116.624654,79.9765253 116.123221,81.7472423 C115.828337,82.7880846 115.446417,83.6181885 114.954078,84.2761036 C114.99175,84.0345254 114.947582,83.7878072 114.715053,83.5886337 C114.584823,83.4771607 114.446962,83.4254399 114.308025,83.4148387 L114.203722,83.4143066 C113.821292,83.4384906 113.443122,83.7384154 113.205559,83.9265862 C112.714519,84.3159383 112.374168,84.3686229 112.368972,84.3814728 C112.244507,84.3200342 112.123878,84.2901733 112.007325,84.2849357 L111.89214,84.2876484 C111.436905,84.3292701 111.048164,84.7277778 110.741264,85.038103 L110.645135,85.1370473 C110.377206,85.3252181 109.452908,85.5437568 108.786146,85.5784556 L108.611373,85.5832 C108.388688,85.5830193 108.211043,85.5559542 108.122383,85.4917046 C107.205626,84.8345238 106.802524,83.527636 106.147091,83.4236004 L106.067179,83.4170084 L105.984551,83.4226752 C105.760324,83.4547639 105.503984,83.6252008 105.190431,83.9946907 C104.10027,85.2776252 102.644297,86.5696061 101.612665,86.6830965 L101.485979,86.6910589 C101.278708,86.6938133 101.091284,86.6432703 100.930852,86.528692 C99.7565124,85.6831682 99.3603027,84.7130004 99.1472588,84.1912942 L99.0784092,84.0242455 C99.0370995,83.9291562 98.8851108,83.893125 98.6535996,83.8899897 L98.5313614,83.8910422 C97.9741961,83.9064323 97.0680936,84.0557801 96.1299546,84.0729799 L95.9130365,84.0744822 C95.2614417,84.0712247 94.6061758,83.9948192 94.0523916,83.7569674 C94.3147993,83.5076793 94.5083575,83.1774367 94.5395347,82.6955653 C94.1563154,80.9312733 92.2454155,81.3129155 90.7151366,80.8567438 C90.2150031,80.7076849 90.2150031,80.6434354 90.1539478,80.0600497 C90.1422564,79.4650991 90.4410375,78.5193461 90.75151,77.6172827 C90.967152,76.8617083 91.1581121,76.3412871 91.1698035,75.7784613 C91.2295597,75.0138919 90.5488585,74.3662567 89.7122714,74.1002636 C89.2095397,73.910085 88.7678633,73.7931509 88.3144955,73.7931509 L88.1091611,73.8016068 C87.2398114,73.8742036 86.6294443,74.4052653 86.0190773,75.0460167 C85.7930429,75.2798849 85.7449781,75.2374803 85.7449781,75.26832 C85.7332866,75.26832 85.7086047,75.26832 85.6371571,75.0781414 C85.5059532,74.8545531 85.3747493,74.4202263 85.338376,73.8779603 C85.3149931,71.9864542 84.073103,71.7847107 83.4040931,71.3169742 C82.9571206,71.0963512 82.6533509,69.7505099 82.3578668,68.3999784 L82.2594939,67.9511646 C82.1610577,67.5052513 82.0618765,67.0726505 81.9569534,66.6948632 C81.9218791,66.590779 81.9101877,66.5368094 81.9101877,66.4725599 C81.9218791,66.323501 81.9569534,66.2489715 82.5311327,66.0909177 C83.0559482,65.9521387 83.8210876,65.9418588 84.4433317,65.909734 C84.632235,65.8631531 84.8316254,65.8507048 85.033903,65.8472334 L85.2775356,65.8457668 L85.3994794,65.8452465 C86.0490997,65.8396307 86.6815919,65.7713834 87.0479235,64.8162071 C87.0115501,64.3484705 86.7361519,64.1030373 86.4269784,63.8370443 C85.124033,62.796202 85.3266845,63.3281881 85.2552369,62.7859221 C85.0395949,61.3634375 83.5456894,61.2028137 82.8286148,60.8532963 C82.3271822,60.7042374 81.6101075,59.4500867 81.2164959,58.6431126 C80.4032917,57.7500442 78.7431081,57.6022703 78.0624068,57.3465572 L77.906521,57.8991031 C77.1063073,57.1563786 76.1385163,56.5293032 75.779979,55.7107642 C75.0031482,54.2240302 74.8953272,53.5969548 74.8836357,52.8323855 C74.8836357,52.5239877 74.9070186,52.1950302 74.9317005,51.7915431 C74.943392,51.0372537 75.886501,50.7391359 77.0829244,50.728856 C79.065272,50.2932442 78.2897402,48.6471713 78.9938244,48.1588749 C79.1497102,47.9558464 79.2679236,47.7862277 79.280914,47.4778299 C79.173093,46.660576 78.3494965,46.649011 78.122163,46.649011 C77.3635188,46.660576 76.2827107,46.8828793 75.1707254,46.8828793 L74.8836357,46.8944442 C73.5092427,46.8404746 71.5736608,46.4267077 70.0446811,46.4164278 L69.7963644,46.4232156 C69.385811,46.4384154 68.9883383,46.4787498 68.5520746,46.6297362 C68.1920527,46.6297362 67.1221937,45.5499508 65.9811332,44.3953325 L65.6373176,44.0477069 L65.2930618,43.7016212 C65.0642627,43.4727505 64.8377246,43.2489261 64.6185566,43.0381877 C62.3244374,41.2109311 62.5764527,39.0110274 60.509667,38.5330109 L60.3363064,38.5503001 C59.6668845,38.6478236 59.2759709,39.0802192 58.81311,39.6483827 C58.5130298,40.3384226 56.7333338,40.1379641 56.4345527,41.8585664 C56.4345527,42.0076253 56.4579355,42.2093688 56.5657565,42.4753618 L56.3514136,42.4213922 C56.040941,42.3468628 55.7759352,42.3044581 55.5148265,42.3044581 L55.4259094,42.3094552 C55.0224342,42.3525993 54.4041403,42.672975 54.4041403,43.1872466 C54.5106622,44.07903 55.2277368,44.621296 56.0760153,45.4706747 L56.2435926,45.6505734 C55.9604,45.8330421 54.8601062,46.0142257 53.9481743,46.0129407 C51.595598,46.2133993 50.2692697,49.0185336 49.1819663,50.3472138 C48.6311699,51.2814019 46.5760756,51.0051289 45.0003301,51.2171524 C43.6012551,51.5576749 42.9452357,52.8850701 42.9088624,54.256155 C42.9088624,55.0207243 43.1595787,55.871388 43.8519714,56.5395831 C44.0087232,56.684787 44.1707675,56.8323547 44.3346988,56.9808126 L44.6640686,57.2784785 C45.8735845,58.3710701 47.062497,59.4587009 46.8878471,59.9602279 C46.5643841,60.4806491 46.1707725,61.171974 45.8239266,61.712955 C45.7161056,61.8838587 45.6095837,62.0431975 45.5134541,62.1704116 C45.3575683,62.0856022 45.1782997,62.0431975 45.0003301,62.0431975 L44.7979346,62.0701397 C43.9524886,62.2148159 43.490836,62.7157065 42.359365,63.3063432 C42.0706627,63.4658593 41.7578639,63.6404637 41.4371941,63.8206002 L41.0496507,64.038808 C39.6224202,64.8441545 38.1684562,65.6826009 38.0699077,65.7401153 L37.7698276,65.909734 L37.7217628,66.186007 C37.6503151,66.2926612 37.4840369,66.5149646 37.0774348,66.8760469 C36.7188975,67.1947246 36.5396289,67.6316213 36.5396289,68.0659481 C36.5760022,69.1389152 37.4242807,70.0628234 38.4635193,70.8710824 C38.7869823,71.1357905 38.8571309,71.3272541 38.8571309,71.5187177 C38.8818128,71.8476752 38.427146,72.3475366 37.7347533,72.4644707 C37.3411416,72.4965955 36.6942156,72.8049932 36.6942156,73.4089387 C36.9449319,74.6206848 38.4635193,75.3865392 38.427146,75.8324309 C38.642788,76.8617083 39.3481712,78.2443581 41.0213453,78.3073226 L41.1842075,78.3011832 C41.2908256,78.2934733 41.3941721,78.2794812 41.498096,78.2649179 C41.7007475,78.2225132 41.8579324,78.2006684 41.9761458,78.2006684 C42.5620165,78.2122333 42.9322453,78.4550965 43.4219864,79.0821719 C43.7259637,79.5087888 44.3040402,79.741372 44.8327528,79.741372 L45.0482967,79.727019 C46.045169,79.6237012 46.9153004,79.0209207 47.6270056,78.3073226 C47.7543123,78.1441288 48.177802,78.0207697 48.9780158,78.0207697 L49.3053136,78.0239771 C49.7573408,78.031872 50.2682305,78.0516095 50.7940852,78.0516095 L51.0514617,78.0498075 C51.6566126,78.0405666 52.2917254,77.9902512 52.9089357,77.7766215 C53.076513,77.7226519 53.184334,77.712372 53.3934807,77.7046621 L53.5029988,77.7157316 C53.9841927,77.810607 54.5491134,78.5014873 55.1089298,79.2505673 L55.3666207,79.5984708 C55.5377417,79.8305504 55.7070856,80.0603067 55.8720648,80.2720731 C56.3163393,80.7706495 56.954172,80.9839579 57.5582294,80.9839579 L57.7093654,80.9759531 C58.6176086,80.9088803 59.5364064,80.4948499 59.648398,79.5087888 C59.648398,79.3700098 59.6120246,79.2209509 59.5068017,78.9870826 C59.4938113,78.9768027 59.5301846,78.8817134 59.9354877,78.529626 C60.3057164,78.1903885 60.8435224,77.6918122 61.3696369,76.9478026 C61.776239,76.3412871 62.6362089,76.086859 63.7572876,76.085574 L64.029268,76.0918526 C64.754668,76.1246948 65.4717426,76.2811781 65.9578753,76.4376614 L66.1605268,76.490346 C66.1852087,77.2343555 66.2332735,78.2764828 66.6866414,79.0821719 C67.2231483,80.0060801 67.5596018,80.3466026 67.5232284,80.6871251 L67.5232284,80.8888686 L67.4751636,81.1857014 C67.5946761,82.2689484 68.0844173,82.2689484 68.2169202,83.3007958 L68.2169202,83.5873487 C68.2403031,84.2992334 67.8817657,85.2115767 67.8700743,86.12649 C67.8700743,86.5621018 67.9778953,87.072243 68.3948898,87.474445 C68.7898005,87.8586572 69.0522082,88.3148288 69.0288253,88.5165723 C69.0158349,88.6759112 68.992452,88.8455299 68.3247412,89.1744875 C66.6022032,89.8555325 65.2641835,90.735751 65.275875,92.8611253 C65.2641835,93.1476782 65.2641835,93.444511 65.2641835,93.7323489 C65.3356312,95.4529512 65.275875,97.1427137 66.6151937,97.9805276 C68.1922383,98.5035187 69.1119644,98.1732761 68.9223034,98.4816739 C69.0509092,99.1717138 69.666658,99.8411938 70.5227308,99.8411938 L70.742982,99.8255342 C71.1748265,99.7734303 71.5588146,99.6003499 71.9685715,99.3734573 C72.2062973,99.2025536 72.3621831,99.140874 72.4453222,99.1074643 L72.49041,99.1687631 C72.5702473,99.2842932 72.6730887,99.4670474 72.7921681,99.7229747 C73.2585264,100.670013 73.7248847,101.529671 74.9070186,101.614481 L75.0879009,101.604294 C75.5034238,101.557439 75.8726986,101.353788 76.1852821,101.09406 C76.586688,100.717557 77.1647645,100.477264 77.4284712,100.553079 C77.5116103,101.307368 78.1572373,102.092497 79.173093,102.092497 L79.4015324,102.078426 C79.8546692,102.031132 80.2874908,101.87001 80.7384462,101.614481 C81.191814,101.348488 82.0894563,101.148029 82.9013615,101.00925 C83.5404932,100.833207 84.0380287,100.867901 84.531667,100.607048 L87.5792342,102.767117 C87.5792342,102.767117 87.2830512,105.13921 87.3363122,105.298549 C87.3908722,105.459172 89.7837191,109.625112 89.7837191,109.625112 C89.808401,109.667516 89.5213113,111.803171 89.0315701,111.920105 C88.3028041,112.419966 85.5423266,112.716799 84.7174309,114.788204 C84.2315869,116.423997 83.4768399,118.587921 81.730919,118.581496 C79.9135505,118.581496 77.1063073,119.059512 75.2551635,119.3345 C74.5549765,119.436014 73.974302,119.516969 73.6859133,119.516969 C73.463776,119.516969 73.0389872,119.462999 72.4310327,119.461714 L72.2885737,119.463972 C71.0355947,119.503606 69.3162999,120.078034 67.941522,122.203884 C65.9578753,125.167072 63.9261639,127.143388 63.364975,127.611124 C62.9897863,127.968585 62.6919929,128.227123 62.3157764,128.260758 L62.1872526,128.263467 L62.0516372,128.248479 L61.6203532,128.928239 L61.5618961,128.16367 L61.3615933,128.182146 C59.4875282,128.415517 59.3969889,130.212587 59.3392245,131.423691 C59.3145426,132.189545 59.0755177,131.977522 57.0204234,132.157421 C54.9536377,132.253795 53.9858467,133.357602 52.9336177,135.333917 C51.7748666,137.405322 50.7239366,140.284986 49.0026977,144.321141 C47.1502549,148.44339 47.9751505,146.700943 45.7758619,148.348301 C43.9844743,149.653852 43.0283748,149.835035 41.1044844,152.999967 C39.9937981,154.784819 39.7067085,156.559391 39.7067085,157.866226 C39.7300913,159.024002 39.8742857,159.714042 40.1133106,160.129094 C40.4822403,160.68164 41.3201264,161.276591 41.7254294,161.605548 C42.1917878,161.966631 42.6932204,162.190219 43.4700512,163.092282 C43.8766533,163.592144 44.055922,164.005911 43.9247181,164.324588 C43.3622302,164.699806 42.3528697,165.207377 41.2330902,165.208662 C40.7069756,165.208662 39.9418362,164.396548 38.750609,163.624269 L38.5113811,163.667398 C37.1434884,163.973181 36.9491709,165.104172 35.7160323,165.929542 C35.4523255,166.131285 35.0223405,166.227659 34.3546297,166.227659 C33.1711968,166.227659 31.6474132,165.790763 29.1285587,165.813892 L28.7869293,165.807066 C28.45963,165.794778 28.1675877,165.770203 27.8412019,165.770203 L27.7210048,165.771881 C27.3542796,165.782243 26.9236841,165.84319 26.1953077,166.025916 C25.7016694,166.025916 24.9118481,165.52991 24.0648686,164.973509 C22.620327,164.14469 18.8803671,164.027756 17.6852427,163.666673 C16.8954214,163.453365 15.8211085,163.337716 14.8883919,163.166812 C14.4220336,163.082003 14.0050391,162.986913 13.4425512,162.753045 C12.6423375,161.754607 11.7109199,162.05144 10.2884621,161.775167 C9.03358146,161.647953 7.57604933,161.573424 6.59656696,161.478334 C6.40560687,160.77673 5.91456663,160.308993 5.35337779,159.608673 C3.81140753,157.98316 2.64096507,158.132219 2.98781095,157.908631 C2.98781095,156.729009 2.5448355,155.454299 0.956099504,154.211713 C0.956099504,153.860911 1.19512438,153.362334 2.03171145,152.967842 C3.78802467,152.225118 4.44534307,151.630167 4.95976618,150.248802 L5.00524635,150.1425 C5.12101447,149.882927 5.2833056,149.676906 6.18996486,149.685976 C7.18113867,149.685976 7.47991976,148.762068 7.4916112,148.251927 C7.46822833,147.241924 7.02655193,145.904249 6.8589747,144.746473 C6.73946226,144.076993 6.69139748,143.641381 6.69139748,143.344548 C6.73946226,142.770157 6.69139748,142.907651 7.4916112,142.281861 C8.42739831,141.564719 8.63669538,140.745065 8.80075121,139.958999 L8.87027714,139.624566 C8.94100548,139.292984 9.02129954,138.971141 9.16478533,138.669753 C9.66621795,137.415602 12.8566804,132.647002 13.168452,130.404693 C13.2398997,129.757058 13.3113473,129.289322 13.3230387,128.85371 C13.4672331,127.961926 12.4747602,127.196072 11.4472131,127.185792 C11.3147102,127.14917 11.208776,127.122349 11.1239785,127.100381 L10.9809563,127.061449 C10.6858084,126.972966 10.8285414,126.923333 10.7301385,126.294009 C10.7301385,126.07042 10.7418299,125.772303 10.7418299,125.443345 C10.6340089,123.627653 9.71428273,123.966891 8.43601927,120.75827 C6.99017858,117.317065 6.26141251,117.327345 6.21464678,116.445841 C5.54433788,114.289627 2.29541824,114.798484 1.29125395,114.161128 C0.34684588,113.779486 0.394910665,113.003352 0.144194355,111.654112 C0.0363733507,111.20822 0,110.635114 0,109.986194 C0,109.094411 0.0961295697,108.074128 0.227333442,107.023006 C0.322163963,105.631361 3.28659205,103.293963 4.85194517,102.061657 C5.44820832,101.551516 5.80804468,101.01953 5.80804468,100.436144 C5.73529798,99.3104928 4.84025374,98.7579468 4.28945729,98.0781868 C3.87116375,97.6001704 3.81140753,97.3547372 3.81140753,97.0681843 C3.7997161,96.7610716 3.97898476,96.3036149 4.22970107,95.6341349 C4.49340786,94.7526314 7.42016354,92.5964173 8.68673558,91.9629169 C9.17517771,91.9629169 10.4144697,92.9819144 12.5591984,92.9883394 L12.6976141,92.9548725 C12.8376608,92.9230893 12.9823128,92.8960113 13.1289789,92.8705255 L13.5724289,92.7957323 C14.5597861,92.6263052 15.5215095,92.3892958 15.6899046,91.1623678 C15.8327999,90.3656737 15.7964266,90.4813229 16.9084119,90.1742101 C17.6722522,90.0675559 18.151601,89.3556712 18.0905458,88.8249701 C18.0671629,88.0488358 17.6605608,87.3163912 17.2422673,86.4233228 C17.1708196,85.8926217 18.258123,84.5009769 19.0466453,82.0684899 C19.2856702,81.3142004 19.3817997,80.7295298 19.3934912,80.2193885 C19.4415559,78.6260003 18.0307896,78.1055791 17.3617797,77.7766215 C16.7424121,77.5207707 16.5911326,76.8664336 16.5824691,74.8687963 L16.5829615,74.3630883 L16.5849489,74.0899837 C16.5732574,72.4117861 16.1068991,71.3490989 14.9000833,71.338819 L14.6163833,71.3554636 C14.342548,71.3798584 14.0933743,71.4239496 13.8244714,71.4557531 C13.5635792,71.4852008 13.3196017,71.5197796 13.0534471,71.5323469 L12.8907804,71.5370288 C12.5588736,71.5402413 12.1837734,71.5039403 11.6979294,71.3812237 C11.1240748,70.5283112 10.3426973,70.4350691 9.49409406,70.4265761 L9.32351863,70.4258075 C9.26638909,70.4257947 9.20900233,70.4259585 9.15139993,70.4260991 L8.97798739,70.4262509 C8.86200316,70.4260388 8.74532265,70.4249337 8.6282784,70.4213358 C8.06968766,70.4213358 7.69036558,69.2378595 8.36457161,67.545527 C8.73480036,67.545527 9.14140246,67.4504377 9.42849212,67.1844446 C9.71428273,66.9197366 9.78702943,66.590779 9.78702943,66.3350659 C9.77403895,65.9739836 9.67920843,65.6334611 9.91823331,65.3584731 C11.040611,65.2942236 11.8174418,64.5502141 12.5942727,63.8177695 C13.1203872,63.2330988 15.1391082,62.5636187 17.3383968,61.841454 C17.9476505,61.6294306 18.5205307,61.2786282 18.5452127,60.619428 C18.2100582,59.2175034 16.6576956,59.0478846 14.2791382,58.5377434 C13.9803572,58.1226914 13.6218198,57.4647763 13.1918349,56.6578022 C12.9047452,56.147661 12.844989,55.7865787 12.844989,55.4460562 C12.8332976,55.0425692 12.9645014,54.7238915 12.9774919,54.2779998 C13.0242576,53.979882 12.7852328,53.4273361 12.3084821,53.2474374 C11.9135714,53.162628 11.5303522,52.1102208 10.3365268,50.857355 C9.97798953,50.5271124 9.65582556,50.17631 9.39211877,49.8589174 C8.75948228,49.1573125 8.37626305,48.6266115 8.16192009,48.0740655 C7.99434286,47.4893948 7.81377516,46.8931592 7.70595415,46.5423568 L7.69296367,46.5462118 C7.58903981,46.2044043 7.46822833,45.839467 7.3006511,45.4591098 C6.96679571,44.6726956 6.50043739,43.9184062 5.81843706,43.1962415 C4.82726326,42.2183637 3.9075371,41.4332345 4.00236762,41.0297475 C4.00236762,40.8485638 4.09719815,40.5735758 4.6129203,40.1161192 L4.80434266,39.9409965 C5.67755095,39.1484243 6.26340439,38.6841258 6.3094773,37.8314061 C6.28479538,37.0771166 5.79375515,36.620945 5.19749201,35.9090602 C4.67137747,35.3462344 4.29984967,34.178178 4.31284015,33.1463306 C4.29984967,32.009114 4.79218895,31.2445446 5.12604435,31.2445446 C5.23643458,31.2154182 5.37128413,31.1904748 5.52544818,31.166738 L5.77053702,31.1316657 C7.44941234,30.9047417 10.7198327,30.6510503 10.8132775,27.6118764 C10.8132775,27.261074 10.7782032,26.8794318 10.6820737,26.4540999 C10.4313574,25.5186268 10.3482183,24.6692481 10.3482183,23.9059637 C10.3352278,21.6418104 11.2549539,20.1974811 12.0187943,19.8248338 C12.4630688,19.5806856 13.2269092,19.4534716 13.9193019,19.3146926 C14.5285555,19.1771986 15.5457103,19.0602645 15.6769142,18.0091422 C15.6769142,17.7534291 15.5690931,17.4887211 15.4248988,17.2445729 C15.2352377,16.956735 15.1391082,16.6496222 15.1391082,16.3617844 C15.1975654,15.7154341 15.4248988,15.2258527 16.8707395,15.1731681 L17.0374988,15.1765948 C17.1553754,15.1811636 17.2855689,15.1903013 17.4215359,15.2040079 C17.6371779,15.2258527 17.8515209,15.2361327 18.0671629,15.2361327 L18.2236634,15.2341811 C19.5907024,15.2000771 21.2130728,14.7118089 21.3043911,13.2071326 C21.3043911,13.0362289 21.2810083,12.878175 21.2329435,12.7085563 C21.1965701,12.6019021 21.1848787,12.5492175 21.1848787,12.4849679 L21.2801685,12.7017253 C21.6385893,13.5572301 22.0853356,15.0395291 22.2591916,15.7886786 C22.6891765,17.3293822 23.1217596,19.0602645 23.1074701,20.3246951 C23.1217596,20.8348364 23.0490129,21.2601682 22.917809,21.5351562 C22.5592717,22.2586059 22.296864,23.2351987 22.2851725,24.2117915 C22.2851725,25.223079 22.6190279,26.3384508 23.7050323,27.0169258 C24.9962862,27.7930601 26.8604204,28.3032013 28.5816594,28.3134812 L28.9019168,28.3071693 C29.4323916,28.2857826 29.9458765,28.2083262 30.4341021,28.0487732 C31.6889827,27.4101329 33.6713304,27.5797516 34.1961458,25.9876484 C34.1610715,25.4556623 33.7661609,25.1793893 33.5037531,24.9236762 C34.1143058,24.3826952 35.8225542,23.6181259 36.9813053,22.8741163 C38.2842507,22.0041778 41.175932,19.4316267 42.8841805,18.8379611 L42.6451556,18.305975 L42.9075633,18.8263962 L43.0419785,18.7761582 C43.2177761,18.7189196 43.3767796,18.6991821 43.4817427,18.6991821 C43.6973847,18.7300219 43.6610113,18.6567774 43.84028,18.985735 C44.5209813,20.7705869 45.4056331,22.0144577 46.88395,22.1313918 L47.0334871,22.1241048 C47.7663234,22.0519182 48.274094,21.4537199 48.4519012,20.7911467 C48.7870557,19.4431916 50.304344,19.2825678 51.6306723,17.499001 C52.3490459,16.3155247 52.6854994,15.9891371 52.7647414,15.9904221 C52.8257966,15.9904221 53.0531301,16.0328268 53.4597322,16.2654101 C54.5236527,16.8398008 56.3267317,17.5092809 58.1908659,17.5195608 L58.4281529,17.5155079 C59.538995,17.477316 60.6917069,17.1641324 61.5852789,16.3617844 C62.8986167,15.054949 64.2600192,14.1618806 64.3691393,12.8139255 C64.3925222,12.1662903 63.8651086,11.6137444 63.1727159,11.3053466 C62.2296069,10.9018596 62.1451687,10.581897 62.206224,10.5510572 L61.7528561,9.96638651 L62.2296069,10.5407773 L62.2752606,10.511901 C62.3489634,10.4693832 62.4730485,10.4130492 62.6362089,10.3698735 C63.4000493,10.2323796 64.1534973,9.61686909 64.0807506,8.91526427 C64.0807506,8.85486971 64.0781525,8.79447516 64.0729563,8.73536559 L64.0548908,8.57381285 C64.0005624,8.13957418 63.8729029,7.67025122 63.7585866,6.98263851 C63.7235123,6.86570438 63.7235123,6.780895 63.7235123,6.65239595 C63.7001295,5.24019136 65.2408007,3.67892787 67.1166263,3.47718436 C67.4154074,3.43477967 67.7024971,3.41293484 67.9662039,3.41293484 L68.4242263,3.42715964 C69.3162066,3.48119668 70.0751159,3.67158507 70.904651,3.6892078 L71.1000004,3.6839825 C71.5608124,3.65907075 72.0517106,3.54143389 72.4700041,3.25359601 C74.0405534,1.78613683 73.2585264,0.203028503 74.5653689,0.203028503 L74.6666947,0.205919732 L74.7758147,0.214593418 L75.0886155,0.21042166 C76.2736625,0.180728563 77.8626781,0.00256998105 79.3523617,0.00256998105 C79.4264074,0 79.4991541,0 79.5706018,0 C81.3619893,0 82.6948128,0.380357196 82.88967,1.04341231 C83.7977048,3.00944781 86.0086849,4.63496083 86.1152068,4.97419832 C85.7099038,5.44193488 85.3747493,6.03688549 85.3747493,6.73720532 C85.3747493,7.35400078 85.6241666,8.00292099 86.0983192,8.73536559 C86.1632716,8.83559485 86.2321212,8.93839409 86.307466,9.04247833 C87.5623466,10.5086525 87.2856493,12.3256291 89.1731664,12.8023606 L89.2939779,12.7920807 C90.1435554,12.5941921 90.698249,12.1277406 90.9424701,12.1560104 L90.9684155,12.1862076 C91.0356565,12.2722217 91.1469078,12.4684237 91.2412512,12.8023606 C91.7790571,14.6206222 92.8663605,16.1818857 92.8066043,16.8937704 C92.8066043,17.1160738 92.770231,17.2021682 92.66241,17.3178173 C92.6273356,17.9230478 89.5446942,16.956735 89.0796349,19.2825678 C89.0796349,19.7194646 89.2329226,20.1550764 89.5096199,20.6960574 C91.0866644,23.7145001 93.0807035,24.9031164 93.2248978,26.1135775 C93.4756141,27.1981095 92.7468481,30.246107 95.9853753,30.384886 L96.2283177,30.3790433 C96.4724372,30.3672977 96.7225852,30.3376626 97.0012311,30.2885117 C99.1394645,29.9171494 100.656753,29.4506979 102.054529,29.3761684 C103.126244,29.2605193 104.683802,28.5781893 105.591837,28.5781893 L105.830862,28.610314 C106.655758,28.7169683 107.455971,30.1188929 109.142136,30.4696953 C109.892986,30.5866295 111.637608,30.650879 112.676846,30.6817188 C112.593707,30.8834623 112.497578,31.0119613 112.497578,31.0222413 C112.032518,31.4038835 111.901314,31.8407802 111.722046,32.2005776 C111.649299,32.3714813 111.56616,32.5308201 111.483021,32.690159 C110.717881,33.0525263 110.264514,33.7207214 109.964433,34.4968556 C109.763081,34.5174155 109.034315,34.442886 108.292558,34.9003427 C108.005469,35.0918063 107.658623,35.3243895 107.63524,35.8460957 C107.707987,36.4731711 107.980787,36.5566955 108.173046,36.9833123 C108.31724,37.2377404 108.388688,37.4818886 108.388688,37.6193826 C108.340623,37.7787214 108.460136,37.704192 108.136673,37.832691 C106.405041,38.4057968 106.440116,40.1585239 106.273837,41.3908298 L106.260847,41.5822934 C106.260847,43.0163428 107.276703,44.1535594 108.603031,44.6842605 C109.320106,44.8641592 110.060563,46.1285899 111.698663,46.2249642 L111.875988,46.2175215 C112.110981,46.1980308 112.340652,46.1416968 112.570324,46.0656253 L112.809349,45.9692511 L112.869105,46.1825595 C113.347155,47.3930206 114.434458,47.4045855 114.673483,47.7862277 C115.664657,48.7319807 117.385896,48.8167901 119.369543,48.8489148 L119.6421,48.8456539 C120.351848,48.8289578 120.922916,48.7538255 121.305125,48.7538255 Z M73.6883815,64.008462 L73.6708126,64.1779765 C73.5845673,64.9755859 73.4406097,65.8456558 73.3181527,65.9847775 C73.0310631,66.462794 72.7556648,66.9408104 72.7556648,67.5241961 C72.733581,68.1307117 73.1155012,68.7462221 73.7962025,69.171554 C74.0118445,69.3206129 74.1183664,69.4259821 74.1664312,69.4683868 C74.1664312,69.5210714 73.9884616,69.9155635 73.7962025,70.5619137 C73.6286252,71.1684293 73.5922519,71.8160645 73.5922519,72.4110151 L73.5920692,73.8501844 C73.5915212,74.0293803 73.589329,74.1910482 73.5805605,74.3346459 C73.4376652,74.2909562 73.2350136,74.2382716 72.9946897,74.1534622 C72.410118,73.9722786 72.0048149,73.8347846 71.5254661,73.8245047 L71.3336577,73.8345186 C70.9561914,73.8738326 70.6159468,74.0244125 70.3186503,74.2061469 C70.2705855,74.1110576 70.2355112,73.9838435 70.2225208,73.8669094 C70.1043074,73.4197327 69.9731035,72.963561 69.55481,72.3364856 L69.3274765,72.4534198 C69.3508594,72.3262057 69.3755413,72.1887117 69.3755413,72.0602127 C69.4586804,71.5616364 68.7429048,71.1144597 68.4428247,71.1144597 C68.1323521,71.0836199 67.9647749,71.0836199 67.9050187,71.06306 C67.5230985,70.9564058 66.5189342,70.2226762 66.3162827,69.3514527 C66.029193,68.2990454 66.0408845,67.9379631 66.029193,67.9379631 L65.8616158,67.9379631 L66.029193,67.8647186 C65.9928197,67.5139162 65.9577454,67.1528339 65.9577454,66.7917515 C65.921372,66.0053373 66.1850788,65.3037325 66.2448351,65.3037325 C66.6488391,64.9362252 67.5516776,64.6663772 68.128455,64.6663772 L68.1921084,64.6663772 L68.4064513,64.6779421 C68.9455563,64.7627515 69.5197357,64.8154361 70.1043074,64.8154361 L70.4371124,64.8097917 C71.2167595,64.7830704 72.0145578,64.6588279 72.7556648,64.3811093 C73.0440535,64.2744551 73.3545261,64.1575209 73.6883815,64.008462 Z" id="path-2"></path>
        <filter x="-1.9%" y="-1.5%" width="104.8%" height="103.0%" filterUnits="objectBoundingBox" id="filter-3">
            <feOffset dx="2" dy="3" in="SourceAlpha" result="shadowOffsetInner1"></feOffset>
            <feComposite in="shadowOffsetInner1" in2="SourceAlpha" operator="arithmetic" k2="-1" k3="1" result="shadowInnerInner1"></feComposite>
            <feColorMatrix values="0 0 0 0 0.141237673   0 0 0 0 0.259739964   0 0 0 0 0.521646251  0 0 0 0.8 0" type="matrix" in="shadowInnerInner1"></feColorMatrix>
        </filter>
    </defs>
    <g id="页面-1" stroke="none" stroke-width="1" fill="none" fill-rule="evenodd">
        <g id="首页" transform="translate(-920, -486)">
            <g id="地图" transform="translate(25, 95)">
                <g id="河北地图选中状态" transform="translate(962.0398, 476.7606) rotate(1) translate(-962.0398, -476.7606)translate(897.8817, 393.6468)">
                    <use fill="url(#linearGradient-1)" fill-rule="evenodd" xlink:href="#path-2"></use>
                    <use fill="black" fill-opacity="1" filter="url(#filter-3)" xlink:href="#path-2"></use>
                    <use stroke="#FFC665" stroke-width="2" xlink:href="#path-2"></use>
                </g>
            </g>
        </g>
    </g>
</svg>