<?xml version="1.0" standalone="no"?><!DOCTYPE svg PUBLIC "-//W3C//DTD SVG 1.1//EN" "http://www.w3.org/Graphics/SVG/1.1/DTD/svg11.dtd"><svg t="1714327340723" class="icon" viewBox="0 0 1024 1024" version="1.1" xmlns="http://www.w3.org/2000/svg" p-id="7516" xmlns:xlink="http://www.w3.org/1999/xlink" width="200" height="200"><path d="M950.857143 877.714286v73.142857h-219.428572v-73.142857h219.428572z m-268.190476 0v73.142857h-73.142857v-73.142857h73.142857zM146.285714 333.116952l343.28381 151.625143-1.852953 429.689905a73.216 73.216 0 0 1-2.681904-1.145905L189.732571 782.165333A73.142857 73.142857 0 0 1 146.285714 715.312762V333.116952zM950.857143 755.809524v73.142857h-219.428572v-73.142857h219.428572z m-268.190476 0v73.142857h-73.142857v-73.142857h73.142857z m268.190476-121.904762v73.142857h-219.428572v-73.142857h219.428572z m-268.190476 0v73.142857h-73.142857v-73.142857h73.142857z m200.46019-296.740572v247.954286h-320.853333l0.414476-98.401524 320.438857-149.552762zM544.402286 110.689524l295.253333 131.120762c11.239619 4.998095 20.796952 12.580571 28.038095 21.894095l-339.431619 158.98819-364.324571-161.694476a73.045333 73.045333 0 0 1 25.795047-19.187809l295.302096-131.120762a73.142857 73.142857 0 0 1 59.367619 0z" p-id="7517"></path></svg>