<svg width="18" height="17" xmlns="http://www.w3.org/2000/svg"><g><path d="M17.776 5.189c0-.01-.004-.018-.004-.028a.55.55 0 0 0-.03-.108l-1.52-3.774C15.962.5 15.235.014 14.325.014H3.686c-.893 0-1.588.476-1.838 1.226L.218 5.091c-.007.025-.018.056-.025.09A3.55 3.55 0 0 0 1.9 9.432c.477.258 1.04.387 1.672.387h.004a3.552 3.552 0 0 0 2.714-1.265 3.538 3.538 0 0 0 2.7 1.261 3.523 3.523 0 0 0 2.687-1.265 3.53 3.53 0 0 0 2.722 1.262c.646-.003 1.216-.139 1.7-.403a3.558 3.558 0 0 0 1.678-4.22zm-3.768.629H3.665a.645.645 0 1 1 0-1.293h10.347a.645.645 0 1 1-.004 1.293z"/><path d="M16.608 10.99a.645.645 0 0 0-.646-.647.583.583 0 0 0-.188.038 3.993 3.993 0 0 1-1.554.268c-1.018-.056-1.796-.258-2.544-.894a4.181 4.181 0 0 1-2.68.998c-1.014-.007-1.963-.26-2.703-.893-.747.636-1.7.945-2.715.945h-.003c-.619 0-.97-.118-1.533-.327-.014-.007-.031-.01-.048-.017-.028-.01-.05-.017-.077-.028 0 0-.094-.017-.142-.017a.647.647 0 0 0-.647.646l.004 3.465c0 .91.743 1.655 1.657 1.655l12.168-.007a1.664 1.664 0 0 0 1.655-1.658l-.004-3.528z"/></g></svg>