<svg width="18" height="15" xmlns="http://www.w3.org/2000/svg"><path d="M10.405 9.129s-.6-.16-.76-.24c-.32-.2-.52-.6-.52-1 0-.44.36-.8.6-1.08.6-.72.92-1.68.92-2.76 0-2.24-1.6-4.04-3.56-4.04s-3.56 1.84-3.56 4.08c0 1.08.36 2.04.92 2.76.36.2.6.64.6 1.08 0 .4-.2.76-.52 1v.04c-.04 0-.08.04-.08.04-.2.12-.4.2-.64.2-1.52.52-2.8 1.32-3.56 2.32h.04c-.2.28-.28.6-.28.92 0 .96.8 1.76 1.8 1.76h10.56c1.04 0 1.84-.76 1.84-1.76 0-.4-.16-.76-.36-1.08-.76-1-1.96-1.76-3.44-2.24zm7.16 1.76c-.68-.84-1.72-1.56-3.04-1.96 0 0-.52-.12-.68-.2-.28-.2-.44-.52-.44-.88 0-.4.32-.72.52-.92.52-.64.84-1.48.84-2.44 0-1.96-1.4-3.6-3.16-3.6-.28 0-.56.04-.8.12.6.88.92 1.92.92 3.08 0 1.24-.44 2.44-1.2 3.44l-.08.08v.04c-.08.08-.2.2-.24.32 0 .04 0 .04.04.04.08.04.2.08.32.08h.04l.16.08c1.64.52 3.04 1.44 3.96 2.6.4.52.64 1.12.64 1.76 0 .36-.08.64-.2.96h1.16c.92 0 1.64-.68 1.64-1.56-.04-.44-.16-.76-.4-1.04z"/></svg>