<svg width="18" height="18" xmlns="http://www.w3.org/2000/svg"><path d="M9.484 11.346a2.957 2.957 0 0 1-2.548-.797 2.817 2.817 0 0 1-.812-2.496C6.32 6.87 7.294 5.916 8.5 5.72a2.954 2.954 0 0 1 2.557.794c.67.658.971 1.592.809 2.505-.202 1.184-1.176 2.134-2.382 2.326m6.833-1.84l1.373-.84a.586.586 0 0 0 .269-.632l-.672-2.89a.596.596 0 0 0-.522-.455l-1.612-.175a.603.603 0 0 1-.406-.218l-.27-.333a.583.583 0 0 1-.127-.437l.185-1.575a.592.592 0 0 0-.337-.6L11.473.063a.62.62 0 0 0-.691.115L9.638 1.302a.613.613 0 0 1-.429.175h-.43a.611.611 0 0 1-.429-.175L7.206.18a.611.611 0 0 0-.69-.115L3.791 1.35a.59.59 0 0 0-.337.601l.185 1.577a.586.586 0 0 1-.126.437l-.269.329a.603.603 0 0 1-.405.218l-1.613.177a.599.599 0 0 0-.522.455L.031 8.032c-.056.245.05.5.269.632l1.373.843a.593.593 0 0 1 .268.37l.096.414a.584.584 0 0 1-.077.447l-.866 1.342a.582.582 0 0 0 .04.684L3.02 15.08a.61.61 0 0 0 .671.189l1.53-.526a.612.612 0 0 1 .461.025l.39.183c.145.068.255.19.307.339l.533 1.498a.606.606 0 0 0 .57.397h3.022c.258 0 .487-.16.57-.397l.533-1.498a.601.601 0 0 1 .308-.34l.389-.182a.612.612 0 0 1 .462-.025l1.528.526a.61.61 0 0 0 .672-.19l1.887-2.315a.585.585 0 0 0 .04-.684l-.866-1.342a.585.585 0 0 1-.079-.447l.096-.412a.605.605 0 0 1 .272-.372"/></svg>