<svg width="18" height="14" xmlns="http://www.w3.org/2000/svg"><path d="M13.882 8.096a1.17 1.17 0 0 0-.334-.826L7 .832C6.77.606 6.45.411 6.066.247 5.73.1 5.366.017 5 .008H1.187C.877.006.577.132.36.356a1.11 1.11 0 0 0-.353.812v3.739c0 .314.078.675.244 1.052.165.39.352.692.595.919l6.549 6.452c.218.218.518.338.826.327.31.004.61-.113.837-.327l4.49-4.422a1.16 1.16 0 0 0 .333-.812zM3.766 3.716a1.13 1.13 0 0 1-.826.335 1.125 1.125 0 0 1-.824-.335 1.098 1.098 0 0 1-.34-.812 1.1 1.1 0 0 1 .34-.813c.218-.218.516-.34.824-.334.32 0 .595.107.826.334.23.226.331.497.331.813.017.306-.104.606-.33.812zM17.06 7.264L10.512.832c-.23-.226-.55-.421-.933-.585C9.24.1 8.879.017 8.51.008h-2.06c.32 0 .685.076 1.069.24.396.163.704.345.933.584L15 7.264c.22.218.342.516.34.826.006.306-.117.6-.34.811l-4.292 4.242c.187.183.352.315.486.403.135.086.32.12.537.12.313.004.615-.116.839-.334l4.49-4.435c.22-.212.341-.507.333-.813a1.154 1.154 0 0 0-.334-.82z"/></svg>