<svg width="16" height="16" xmlns="http://www.w3.org/2000/svg"><path d="M5.472 0H1.685C.754 0 0 .754 0 1.685v3.789c0 .931.754 1.685 1.685 1.685h3.789c.931 0 1.685-.754 1.685-1.685v-3.79A1.687 1.687 0 0 0 5.472 0zm8.841 0h-3.787c-.931 0-1.685.754-1.685 1.685v3.789c0 .931.754 1.685 1.685 1.685h3.79c.93 0 1.684-.754 1.684-1.685v-3.79A1.687 1.687 0 0 0 14.313 0zm-8.84 8.841H1.684C.754 8.841 0 9.595 0 10.526v3.79C0 15.245.754 16 1.685 16h3.789c.931 0 1.685-.754 1.685-1.685v-3.789a1.687 1.687 0 0 0-1.687-1.685zm8.84 0h-3.787c-.931 0-1.685.754-1.685 1.685v3.79c0 .93.754 1.684 1.685 1.684h3.79c.93 0 1.684-.754 1.684-1.685v-3.789a1.687 1.687 0 0 0-1.687-1.685z"/></svg>