<?xml version="1.0" encoding="UTF-8"?>
<svg width="20px" height="20px" viewBox="0 0 20 20" version="1.1" xmlns="http://www.w3.org/2000/svg" xmlns:xlink="http://www.w3.org/1999/xlink">
    <title>contacts-book-2-fill</title>
    <g id="v1.0.0" stroke="none" stroke-width="1" fill="none" fill-rule="evenodd">
        <g id="首页备份-2" transform="translate(-20.000000, -204.000000)">
            <g id="contacts-book-2-fill" transform="translate(20.000000, 204.000000)">
                <polygon id="路径" points="0 0 20 0 20 20 0 20"></polygon>
                <g id="交易" transform="translate(1.000000, 1.000000)" fill="#5C5C5C" fill-rule="nonzero">
                    <path d="M9,0 C4.02988235,0 0,4.02988235 0,9 C0,13.9701176 4.02988235,18 9,18 C13.9701176,18 18,13.9701176 18,9 C18,4.02988235 13.9722353,0 9,0 Z M14.3152941,11.8778824 C14.2941176,11.9075294 14.2687059,11.9350588 14.2390588,11.9562353 L10.512,14.7134118 C10.3574118,14.8277647 10.1392941,14.796 10.0249412,14.6414118 C9.98047059,14.5821176 9.95717647,14.508 9.95717647,14.4338824 L9.95717647,12.6592941 L6.912,12.6592941 C4.74141176,12.672 3.564,11.5983529 3.37552941,9.44047059 C3.564,9.63741176 4.38776471,10.8021176 6.912,10.8021176 C8.59341176,10.8021176 9.60988235,10.7830588 9.95717647,10.7449412 L9.95717647,9.04235294 C9.95717647,8.84964706 10.1138824,8.69505882 10.3044706,8.69505882 C10.3764706,8.69505882 10.4463529,8.71835294 10.5056471,8.75858824 L14.2305882,11.3908235 C14.3894118,11.5030588 14.4254118,11.7211765 14.3152941,11.8778824 L14.3152941,11.8778824 Z M11.0901176,7.19364706 C9.40870588,7.19364706 8.39223529,7.21270588 8.04494118,7.25082353 L8.04494118,8.95341176 C8.04494118,9.14611765 7.88823529,9.30070588 7.69764706,9.30070588 C7.62564706,9.30070588 7.55576471,9.27741176 7.49647059,9.23717647 L3.76941176,6.60705882 C3.61270588,6.49694118 3.57458824,6.27882353 3.68682353,6.12211765 C3.708,6.09247059 3.73341176,6.06494118 3.76305882,6.04376471 L7.488,3.28658824 C7.64258824,3.17223529 7.86070588,3.204 7.97505882,3.35858824 C8.01952941,3.41788235 8.04282353,3.492 8.04282353,3.56611765 L8.04282353,5.34070588 L11.088,5.34070588 C13.2585882,5.328 14.436,6.40164706 14.6244706,8.55952941 C14.436,8.35835294 13.6122353,7.19364706 11.0901176,7.19364706 L11.0901176,7.19364706 Z" id="形状"></path>
                </g>
            </g>
        </g>
    </g>
</svg>